<svg width="60" height="60" viewBox="0 0 60 60" fill="none" xmlns="http://www.w3.org/2000/svg">
<path d="M60 32.9713C53.4824 32.5732 53.0778 26.8498 53.1191 24.9707H53.0602V11.7724C53.0602 11.7724 52.1038 3.66 59.9097 3.18141V0H39.204C39.204 0.476623 39.204 3.49916 39.204 3.49916C39.204 3.49916 45.5744 2.54395 46.0535 10.3406V30.5568H44.6023C44.6023 30.5568 36.3763 31.21 36.0012 23.7154H32.816V36.392H45.7826C45.6726 38.0632 45.5724 39.6107 45.5744 39.6107C45.6215 39.6107 45.2445 41.5937 45.217 41.7016C44.785 43.3786 44.0545 44.9811 43.0726 46.407C40.8948 49.5629 37.5093 51.5753 33.8725 52.6286C30.2808 53.6662 26.9425 53.2484 23.5315 51.7734C19.4724 50.018 16.2754 46.7326 14.9244 42.5018C14.6259 41.5663 14.402 40.5934 14.3353 39.6107C14.3353 39.6107 14.2351 38.0632 14.1252 36.392H27.0956V23.7154H23.9105C23.5354 31.208 15.3093 30.5568 15.3093 30.5568H13.8581V10.3406C14.3353 2.54591 20.7076 3.49916 20.7076 3.49916C20.7076 3.49916 20.7076 0.476623 20.7076 0H0V3.18141C7.80389 3.65803 6.84951 11.7724 6.84951 11.7724V26.0652C6.65903 28.4699 5.52596 32.632 0.00196565 32.9694V36.1508H6.84951V38.4966C7.43667 44.324 9.86581 49.814 14.2999 53.725C17.218 56.2984 20.7822 58.2383 24.5251 59.3033C28.4192 60.4115 32.6137 60.1467 36.4312 58.8698C37.0321 58.6698 37.6272 58.4501 38.2143 58.2128C42.7564 56.3769 46.8292 53.3661 49.494 49.2138C51.5579 45.999 52.6792 42.2782 53.0621 38.4947V36.1488H60V32.9713Z" fill="#0D0A07"/>
</svg>
