<svg width="2000" height="2000" viewBox="0 0 2000 2000" fill="none" xmlns="http://www.w3.org/2000/svg">
<path d="M2000 1099.04C1782.75 1085.77 1769.26 894.993 1770.64 832.358H1768.67V392.413C1768.67 392.413 1736.79 122 1996.99 106.047V0H1306.8C1306.8 15.8874 1306.8 116.639 1306.8 116.639C1306.8 116.639 1519.15 84.7984 1535.12 344.686V1018.56H1486.74C1486.74 1018.56 1212.54 1040.33 1200.04 790.515H1093.87V1213.07H1526.09C1522.42 1268.77 1519.08 1320.36 1519.15 1320.36C1520.72 1320.36 1508.15 1386.46 1507.23 1390.05C1492.83 1445.95 1468.48 1499.37 1435.75 1546.9C1363.16 1652.1 1250.31 1719.18 1129.08 1754.29C1009.36 1788.87 898.082 1774.95 784.382 1725.78C649.08 1667.27 542.515 1557.75 497.48 1416.73C487.53 1385.54 480.068 1353.11 477.843 1320.36C477.843 1320.36 474.504 1268.77 470.839 1213.07H903.188V790.515H797.015C784.513 1040.27 510.31 1018.56 510.31 1018.56H461.936V344.686C477.843 84.8637 690.253 116.639 690.253 116.639C690.253 116.639 690.253 15.8874 690.253 0H0V106.047C260.13 121.934 228.317 392.413 228.317 392.413V868.84C221.968 948.997 184.199 1087.73 0.0655218 1098.98V1205.03H228.317V1283.22C247.889 1477.47 328.86 1660.47 476.664 1790.83C573.935 1876.61 692.741 1941.28 817.504 1976.78C947.307 2013.72 1087.12 2004.89 1214.37 1962.33C1234.4 1955.66 1254.24 1948.34 1273.81 1940.43C1425.21 1879.23 1560.97 1778.87 1649.8 1640.46C1718.6 1533.3 1755.97 1409.27 1768.74 1283.16V1204.96H2000V1099.04Z" fill="#414042"/>
</svg>
