<svg width="17" height="17" viewBox="0 0 17 17" fill="none" xmlns="http://www.w3.org/2000/svg">
<path d="M1.48907 0.203125L5.09259 1.25113L3.6336 0.263594C4.5547 0.471719 5.71837 0.878828 7.18087 1.5359L9.56798 4.02461L8.72071 2.28613C9.53985 2.74176 10.4082 3.33906 11.2449 4.03867L11.8004 6.29922L11.9199 4.62578C12.7461 5.38516 13.5231 6.22891 14.1664 7.11836C14.8425 8.05 15.3709 9.03438 15.6356 10.0152L16.6242 9.3543C16.5356 10.1875 16.2617 10.9117 15.8124 11.5762L16.9944 11.2141C16.7258 12.0402 16.2867 12.5746 15.5442 13.007C15.9601 14.1777 16.1552 15.4012 16.3647 16.6211L15.7179 16.7301C14.9676 9.25235 9.67345 4.48516 4.88868 2.37297L4.6461 2.98398C8.92462 4.9 12.2504 8.13438 13.9906 12.7961C13.3543 12.7996 12.732 12.7223 12.1555 12.5746L11.9832 10.4336L11.5227 12.3848C11.1395 12.2441 10.7879 12.0754 10.475 11.8785L11.2027 10.3492L10.0496 11.5727C9.76837 11.3477 9.53634 11.0945 9.36056 10.8168C8.29181 9.14688 7.17384 7.4875 4.97305 6.09883L6.5797 5.5293L4.11524 5.60313C3.71446 5.39922 3.29259 5.14961 2.97266 4.91406L4.71993 4.77344L2.09376 4.15469C1.88985 3.95078 1.70001 3.73633 1.52774 3.52188C0.919538 2.75055 0.508211 1.94758 0.606649 1.21738C0.652353 0.852109 0.870319 0.508633 1.2254 0.316328C1.31329 0.270625 1.40821 0.230195 1.48907 0.203125Z" fill="black"/>
</svg>
